<?xml version="1.0" standalone="no"?>
<!DOCTYPE svg PUBLIC "-//W3C//DTD SVG 20010904//EN"
 "http://www.w3.org/TR/2001/REC-SVG-20010904/DTD/svg10.dtd">
<svg version="1.0" xmlns="http://www.w3.org/2000/svg"
 width="256.000000pt" height="256.000000pt" viewBox="0 0 256.000000 256.000000"
 preserveAspectRatio="xMidYMid meet">
<metadata>
Created by potrace 1.11, written by Peter Selinger 2001-2013
</metadata>
<g transform="translate(0.000000,256.000000) scale(0.100000,-0.100000)"
fill="#000000" stroke="none">
<path d="M1340 2508 c-90 -51 -130 -86 -130 -116 0 -23 -13 -24 -16 -1 -1 5
-2 13 -3 18 0 5 -27 19 -58 31 -32 13 -64 28 -70 33 -10 7 -13 0 -13 -32 0
-22 -2 -41 -4 -41 -2 0 -38 16 -80 36 -134 64 -274 49 -357 -39 -64 -66 -47
-132 51 -199 24 -17 24 -18 7 -29 -71 -43 -206 -203 -271 -322 -80 -146 -128
-333 -140 -548 -5 -84 -11 -96 -64 -130 -29 -19 -40 -30 -31 -34 33 -12 66
-12 98 1 19 8 35 13 36 12 21 -38 20 -57 -7 -139 -30 -96 -39 -145 -39 -229 0
-56 30 -171 53 -203 12 -15 13 -13 14 18 1 19 2 50 3 68 l2 32 13 -30 c7 -16
25 -42 39 -57 14 -15 33 -38 42 -50 15 -19 16 -20 11 -3 -6 17 -4 16 19 -5 23
-22 26 -31 22 -68 -3 -25 -14 -53 -26 -66 -27 -29 -26 -34 2 -29 23 4 24 1 31
-59 13 -123 21 -154 60 -238 32 -70 54 -90 98 -90 43 0 43 -1 24 45 -19 44
-69 246 -63 252 3 2 1 20 -5 39 -7 28 -6 41 7 60 9 14 13 29 10 34 -3 6 -2 10
3 10 6 0 20 -17 33 -37 l23 -38 9 62 9 63 45 -38 c25 -20 63 -54 85 -74 31
-30 40 -35 45 -22 6 15 -1 79 -13 122 l-7 24 28 -26 c41 -38 75 -88 68 -99 -4
-6 -1 -7 6 -2 7 4 19 21 25 37 l13 29 17 -25 c18 -28 42 -36 33 -11 -9 23 9
27 27 6 10 -11 30 -24 46 -31 l28 -11 -31 -72 c-17 -40 -32 -74 -34 -76 -1 -2
-17 2 -35 9 -18 7 -52 14 -75 17 l-43 5 0 -45 c0 -24 7 -64 15 -88 10 -29 12
-45 5 -49 -6 -4 -12 -20 -13 -36 l-2 -29 402 -3 402 -2 -10 30 c-6 16 -17 30
-25 30 -19 0 -18 14 5 58 11 21 22 54 26 74 6 33 5 36 -23 46 -26 9 -102 7
-122 -2 -3 -1 -21 29 -40 69 -36 70 -36 71 -16 90 17 18 18 18 13 2 -6 -15 -3
-17 16 -11 12 3 30 13 39 21 18 16 38 10 38 -12 0 -8 3 -16 8 -18 4 -3 5 20 4
51 -4 63 1 65 21 6 l14 -39 13 38 c8 20 18 37 23 37 4 0 6 -4 3 -8 -3 -5 -2
-30 2 -56 l7 -47 40 55 c47 65 64 73 35 16 -11 -21 -20 -42 -20 -45 0 -12 62
27 96 60 20 19 37 35 40 35 2 0 10 -12 18 -27 12 -25 11 -43 -19 -184 -19 -86
-45 -181 -59 -212 l-25 -57 47 0 c39 0 49 4 59 23 70 136 94 203 124 352 11
55 22 101 24 103 2 2 16 -3 32 -11 15 -8 43 -17 61 -20 35 -7 35 -6 0 45 -10
14 -18 34 -18 44 0 16 3 15 23 -4 36 -34 48 -28 46 21 -1 23 -1 56 0 72 2 28
3 29 11 7 5 -12 13 -22 18 -22 14 0 42 68 42 101 0 23 4 30 14 26 28 -11 91
-19 79 -10 -36 26 -85 200 -85 304 0 99 10 149 29 142 14 -5 14 -4 1 18 -11
18 -15 52 -13 129 0 58 -2 125 -6 150 -4 25 -10 73 -13 107 -8 74 -48 217 -81
290 -55 120 -174 255 -304 341 l-86 57 16 32 c46 92 -49 187 -196 197 -61 3
-146 -13 -184 -35 -44 -26 -46 -24 -50 56 0 14 -4 25 -8 25 -5 0 -33 -14 -63
-32z m317 -137 c12 -6 23 -18 27 -27 5 -13 2 -15 -17 -11 -12 4 -47 11 -76 18
-53 11 -54 12 -30 25 26 15 64 13 96 -5z m-778 -39 c13 -9 24 -20 25 -25 0 -4
-27 -20 -62 -37 -62 -29 -62 -29 -81 -9 -62 67 39 128 118 71z"/>
<path d="M125 1530 c-9 -15 11 -37 40 -42 35 -7 49 5 28 24 -25 22 -60 31 -68
18z"/>
<path d="M165 1450 c-3 -5 3 -10 15 -10 12 0 18 5 15 10 -3 6 -10 10 -15 10
-5 0 -12 -4 -15 -10z"/>
<path d="M143 1392 c-30 -5 -50 -29 -35 -44 8 -8 22 -8 51 0 30 10 38 16 34
30 -5 19 -10 20 -50 14z"/>
<path d="M2354 1117 c-15 -13 -24 -28 -21 -34 10 -16 66 -2 82 20 29 41 -17
52 -61 14z"/>
<path d="M2383 1053 c-14 -5 -18 -23 -5 -23 5 0 17 7 28 15 14 11 15 14 4 14
-8 0 -21 -3 -27 -6z"/>
<path d="M2387 989 c-22 -13 -12 -35 24 -50 26 -10 33 -10 47 5 15 14 15 18 1
31 -19 20 -50 26 -72 14z"/>
</g>
</svg>
